<?xml version="1.0" encoding="utf-8" standalone="no"?>
<!DOCTYPE svg PUBLIC "-//W3C//DTD SVG 1.1//EN"
  "http://www.w3.org/Graphics/SVG/1.1/DTD/svg11.dtd">
<svg xmlns:xlink="http://www.w3.org/1999/xlink" width="460.8pt" height="345.6pt" viewBox="0 0 460.8 345.6" xmlns="http://www.w3.org/2000/svg" version="1.1">
 <metadata>
  <rdf:RDF xmlns:dc="http://purl.org/dc/elements/1.1/" xmlns:cc="http://creativecommons.org/ns#" xmlns:rdf="http://www.w3.org/1999/02/22-rdf-syntax-ns#">
   <cc:Work>
    <dc:type rdf:resource="http://purl.org/dc/dcmitype/StillImage"/>
    <dc:date>2023-11-29T21:58:48.969731</dc:date>
    <dc:format>image/svg+xml</dc:format>
    <dc:creator>
     <cc:Agent>
      <dc:title>Matplotlib v3.8.2, https://matplotlib.org/</dc:title>
     </cc:Agent>
    </dc:creator>
   </cc:Work>
  </rdf:RDF>
 </metadata>
 <defs>
  <style type="text/css">*{stroke-linejoin: round; stroke-linecap: butt}</style>
 </defs>
 <g id="figure_1">
  <g id="patch_1">
   <path d="M 0 345.6 
L 460.8 345.6 
L 460.8 0 
L 0 0 
z
" style="fill: #ffffff"/>
  </g>
  <g id="axes_1">
   <g id="patch_2">
    <path d="M 57.6 307.584 
L 414.72 307.584 
L 414.72 41.472 
L 57.6 41.472 
z
" style="fill: #ffffff"/>
   </g>
   <g id="patch_3">
    <path d="M 63.18 307.584 
L 74.34 307.584 
L 74.34 286.907748 
L 63.18 286.907748 
z
" clip-path="url(#p180e529964)" style="fill: #3b4cc0; stroke: #000000; stroke-linejoin: miter"/>
   </g>
   <g id="patch_4">
    <path d="M 85.5 307.584 
L 96.66 307.584 
L 96.66 278.560491 
L 85.5 278.560491 
z
" clip-path="url(#p180e529964)" style="fill: #3b4cc0; stroke: #000000; stroke-linejoin: miter"/>
   </g>
   <g id="patch_5">
    <path d="M 107.82 307.584 
L 118.98 307.584 
L 118.98 297.557697 
L 107.82 297.557697 
z
" clip-path="url(#p180e529964)" style="fill: #3b4cc0; stroke: #000000; stroke-linejoin: miter"/>
   </g>
   <g id="patch_6">
    <path d="M 130.14 307.584 
L 141.3 307.584 
L 141.3 303.890099 
L 130.14 303.890099 
z
" clip-path="url(#p180e529964)" style="fill: #3b4cc0; stroke: #000000; stroke-linejoin: miter"/>
   </g>
   <g id="patch_7">
    <path d="M 152.46 307.584 
L 163.62 307.584 
L 163.62 299.668497 
L 152.46 299.668497 
z
" clip-path="url(#p180e529964)" style="fill: #3b4cc0; stroke: #000000; stroke-linejoin: miter"/>
   </g>
   <g id="patch_8">
    <path d="M 174.78 307.584 
L 185.94 307.584 
L 185.94 293.815823 
L 174.78 293.815823 
z
" clip-path="url(#p180e529964)" style="fill: #3b4cc0; stroke: #000000; stroke-linejoin: miter"/>
   </g>
   <g id="patch_9">
    <path d="M 197.1 307.584 
L 208.26 307.584 
L 208.26 296.646215 
L 197.1 296.646215 
z
" clip-path="url(#p180e529964)" style="fill: #3b4cc0; stroke: #000000; stroke-linejoin: miter"/>
   </g>
   <g id="patch_10">
    <path d="M 219.42 307.584 
L 230.58 307.584 
L 230.58 289.066521 
L 219.42 289.066521 
z
" clip-path="url(#p180e529964)" style="fill: #3b4cc0; stroke: #000000; stroke-linejoin: miter"/>
   </g>
   <g id="patch_11">
    <path d="M 241.74 307.584 
L 252.9 307.584 
L 252.9 282.734119 
L 241.74 282.734119 
z
" clip-path="url(#p180e529964)" style="fill: #3b4cc0; stroke: #000000; stroke-linejoin: miter"/>
   </g>
   <g id="patch_12">
    <path d="M 264.06 307.584 
L 275.22 307.584 
L 275.22 231.883012 
L 264.06 231.883012 
z
" clip-path="url(#p180e529964)" style="fill: #3b4cc0; stroke: #000000; stroke-linejoin: miter"/>
   </g>
   <g id="patch_13">
    <path d="M 286.38 307.584 
L 297.54 307.584 
L 297.54 304.897526 
L 286.38 304.897526 
z
" clip-path="url(#p180e529964)" style="fill: #3b4cc0; stroke: #000000; stroke-linejoin: miter"/>
   </g>
   <g id="patch_14">
    <path d="M 308.7 307.584 
L 319.86 307.584 
L 319.86 93.865431 
L 308.7 93.865431 
z
" clip-path="url(#p180e529964)" style="fill: #3b4cc0; stroke: #000000; stroke-linejoin: miter"/>
   </g>
   <g id="patch_15">
    <path d="M 331.02 307.584 
L 342.18 307.584 
L 342.18 286.76383 
L 331.02 286.76383 
z
" clip-path="url(#p180e529964)" style="fill: #3b4cc0; stroke: #000000; stroke-linejoin: miter"/>
   </g>
   <g id="patch_16">
    <path d="M 353.34 307.584 
L 364.5 307.584 
L 364.5 306.096845 
L 353.34 306.096845 
z
" clip-path="url(#p180e529964)" style="fill: #3b4cc0; stroke: #000000; stroke-linejoin: miter"/>
   </g>
   <g id="patch_17">
    <path d="M 375.66 307.584 
L 386.82 307.584 
L 386.82 304.513744 
L 375.66 304.513744 
z
" clip-path="url(#p180e529964)" style="fill: #3b4cc0; stroke: #000000; stroke-linejoin: miter"/>
   </g>
   <g id="patch_18">
    <path d="M 397.98 307.584 
L 409.14 307.584 
L 409.14 167.935346 
L 397.98 167.935346 
z
" clip-path="url(#p180e529964)" style="fill: #3b4cc0; stroke: #000000; stroke-linejoin: miter"/>
   </g>
   <g id="patch_19">
    <path d="M 63.18 286.907748 
L 74.34 286.907748 
L 74.34 285.708429 
L 63.18 285.708429 
z
" clip-path="url(#p180e529964)" style="fill: #b40426; stroke: #000000; stroke-linejoin: miter"/>
   </g>
   <g id="patch_20">
    <path d="M 85.5 278.560491 
L 96.66 278.560491 
L 96.66 277.025363 
L 85.5 277.025363 
z
" clip-path="url(#p180e529964)" style="fill: #b40426; stroke: #000000; stroke-linejoin: miter"/>
   </g>
   <g id="patch_21">
    <path d="M 107.82 297.557697 
L 118.98 297.557697 
L 118.98 296.838106 
L 107.82 296.838106 
z
" clip-path="url(#p180e529964)" style="fill: #b40426; stroke: #000000; stroke-linejoin: miter"/>
   </g>
   <g id="patch_22">
    <path d="M 130.14 303.890099 
L 141.3 303.890099 
L 141.3 303.794153 
L 130.14 303.794153 
z
" clip-path="url(#p180e529964)" style="fill: #b40426; stroke: #000000; stroke-linejoin: miter"/>
   </g>
   <g id="patch_23">
    <path d="M 152.46 299.668497 
L 163.62 299.668497 
L 163.62 299.140797 
L 152.46 299.140797 
z
" clip-path="url(#p180e529964)" style="fill: #b40426; stroke: #000000; stroke-linejoin: miter"/>
   </g>
   <g id="patch_24">
    <path d="M 174.78 293.815823 
L 185.94 293.815823 
L 185.94 292.760422 
L 174.78 292.760422 
z
" clip-path="url(#p180e529964)" style="fill: #b40426; stroke: #000000; stroke-linejoin: miter"/>
   </g>
   <g id="patch_25">
    <path d="M 197.1 296.646215 
L 208.26 296.646215 
L 208.26 295.974596 
L 197.1 295.974596 
z
" clip-path="url(#p180e529964)" style="fill: #b40426; stroke: #000000; stroke-linejoin: miter"/>
   </g>
   <g id="patch_26">
    <path d="M 219.42 289.066521 
L 230.58 289.066521 
L 230.58 281.966555 
L 219.42 281.966555 
z
" clip-path="url(#p180e529964)" style="fill: #b40426; stroke: #000000; stroke-linejoin: miter"/>
   </g>
   <g id="patch_27">
    <path d="M 241.74 282.734119 
L 252.9 282.734119 
L 252.9 275.010508 
L 241.74 275.010508 
z
" clip-path="url(#p180e529964)" style="fill: #b40426; stroke: #000000; stroke-linejoin: miter"/>
   </g>
   <g id="patch_28">
    <path d="M 264.06 231.883012 
L 275.22 231.883012 
L 275.22 179.496777 
L 264.06 179.496777 
z
" clip-path="url(#p180e529964)" style="fill: #b40426; stroke: #000000; stroke-linejoin: miter"/>
   </g>
   <g id="patch_29">
    <path d="M 286.38 304.897526 
L 297.54 304.897526 
L 297.54 298.900934 
L 286.38 298.900934 
z
" clip-path="url(#p180e529964)" style="fill: #b40426; stroke: #000000; stroke-linejoin: miter"/>
   </g>
   <g id="patch_30">
    <path d="M 308.7 93.865431 
L 319.86 93.865431 
L 319.86 54.144 
L 308.7 54.144 
z
" clip-path="url(#p180e529964)" style="fill: #b40426; stroke: #000000; stroke-linejoin: miter"/>
   </g>
   <g id="patch_31">
    <path d="M 331.02 286.76383 
L 342.18 286.76383 
L 342.18 262.777458 
L 331.02 262.777458 
z
" clip-path="url(#p180e529964)" style="fill: #b40426; stroke: #000000; stroke-linejoin: miter"/>
   </g>
   <g id="patch_32">
    <path d="M 353.34 306.096845 
L 364.5 306.096845 
L 364.5 306.048872 
L 353.34 306.048872 
z
" clip-path="url(#p180e529964)" style="fill: #b40426; stroke: #000000; stroke-linejoin: miter"/>
   </g>
   <g id="patch_33">
    <path d="M 375.66 304.513744 
L 386.82 304.513744 
L 386.82 295.207032 
L 375.66 295.207032 
z
" clip-path="url(#p180e529964)" style="fill: #b40426; stroke: #000000; stroke-linejoin: miter"/>
   </g>
   <g id="patch_34">
    <path d="M 397.98 167.935346 
L 409.14 167.935346 
L 409.14 135.505772 
L 397.98 135.505772 
z
" clip-path="url(#p180e529964)" style="fill: #b40426; stroke: #000000; stroke-linejoin: miter"/>
   </g>
   <g id="matplotlib.axis_1">
    <g id="xtick_1">
     <g id="line2d_1">
      <defs>
       <path id="mff29718d93" d="M 0 0 
L 0 3.5 
" style="stroke: #000000; stroke-width: 0.8"/>
      </defs>
      <g>
       <use xlink:href="#mff29718d93" x="68.76" y="307.584" style="stroke: #000000; stroke-width: 0.8"/>
      </g>
     </g>
     <g id="text_1">
      <!--  10th -->
      <g transform="translate(48.790863 338.455483) rotate(-45) scale(0.1 -0.1)">
       <defs>
        <path id="DejaVuSans-20" transform="scale(0.015625)"/>
        <path id="DejaVuSans-31" d="M 794 531 
L 1825 531 
L 1825 4091 
L 703 3866 
L 703 4441 
L 1819 4666 
L 2450 4666 
L 2450 531 
L 3481 531 
L 3481 0 
L 794 0 
L 794 531 
z
" transform="scale(0.015625)"/>
        <path id="DejaVuSans-30" d="M 2034 4250 
Q 1547 4250 1301 3770 
Q 1056 3291 1056 2328 
Q 1056 1369 1301 889 
Q 1547 409 2034 409 
Q 2525 409 2770 889 
Q 3016 1369 3016 2328 
Q 3016 3291 2770 3770 
Q 2525 4250 2034 4250 
z
M 2034 4750 
Q 2819 4750 3233 4129 
Q 3647 3509 3647 2328 
Q 3647 1150 3233 529 
Q 2819 -91 2034 -91 
Q 1250 -91 836 529 
Q 422 1150 422 2328 
Q 422 3509 836 4129 
Q 1250 4750 2034 4750 
z
" transform="scale(0.015625)"/>
        <path id="DejaVuSans-74" d="M 1172 4494 
L 1172 3500 
L 2356 3500 
L 2356 3053 
L 1172 3053 
L 1172 1153 
Q 1172 725 1289 603 
Q 1406 481 1766 481 
L 2356 481 
L 2356 0 
L 1766 0 
Q 1100 0 847 248 
Q 594 497 594 1153 
L 594 3053 
L 172 3053 
L 172 3500 
L 594 3500 
L 594 4494 
L 1172 4494 
z
" transform="scale(0.015625)"/>
        <path id="DejaVuSans-68" d="M 3513 2113 
L 3513 0 
L 2938 0 
L 2938 2094 
Q 2938 2591 2744 2837 
Q 2550 3084 2163 3084 
Q 1697 3084 1428 2787 
Q 1159 2491 1159 1978 
L 1159 0 
L 581 0 
L 581 4863 
L 1159 4863 
L 1159 2956 
Q 1366 3272 1645 3428 
Q 1925 3584 2291 3584 
Q 2894 3584 3203 3211 
Q 3513 2838 3513 2113 
z
" transform="scale(0.015625)"/>
       </defs>
       <use xlink:href="#DejaVuSans-20"/>
       <use xlink:href="#DejaVuSans-31" x="31.787109"/>
       <use xlink:href="#DejaVuSans-30" x="95.410156"/>
       <use xlink:href="#DejaVuSans-74" x="159.033203"/>
       <use xlink:href="#DejaVuSans-68" x="198.242188"/>
      </g>
     </g>
    </g>
    <g id="xtick_2">
     <g id="line2d_2">
      <g>
       <use xlink:href="#mff29718d93" x="91.08" y="307.584" style="stroke: #000000; stroke-width: 0.8"/>
      </g>
     </g>
     <g id="text_2">
      <!--  11th -->
      <g transform="translate(71.110863 338.455483) rotate(-45) scale(0.1 -0.1)">
       <use xlink:href="#DejaVuSans-20"/>
       <use xlink:href="#DejaVuSans-31" x="31.787109"/>
       <use xlink:href="#DejaVuSans-31" x="95.410156"/>
       <use xlink:href="#DejaVuSans-74" x="159.033203"/>
       <use xlink:href="#DejaVuSans-68" x="198.242188"/>
      </g>
     </g>
    </g>
    <g id="xtick_3">
     <g id="line2d_3">
      <g>
       <use xlink:href="#mff29718d93" x="113.4" y="307.584" style="stroke: #000000; stroke-width: 0.8"/>
      </g>
     </g>
     <g id="text_3">
      <!--  12th -->
      <g transform="translate(93.430863 338.455483) rotate(-45) scale(0.1 -0.1)">
       <defs>
        <path id="DejaVuSans-32" d="M 1228 531 
L 3431 531 
L 3431 0 
L 469 0 
L 469 531 
Q 828 903 1448 1529 
Q 2069 2156 2228 2338 
Q 2531 2678 2651 2914 
Q 2772 3150 2772 3378 
Q 2772 3750 2511 3984 
Q 2250 4219 1831 4219 
Q 1534 4219 1204 4116 
Q 875 4013 500 3803 
L 500 4441 
Q 881 4594 1212 4672 
Q 1544 4750 1819 4750 
Q 2544 4750 2975 4387 
Q 3406 4025 3406 3419 
Q 3406 3131 3298 2873 
Q 3191 2616 2906 2266 
Q 2828 2175 2409 1742 
Q 1991 1309 1228 531 
z
" transform="scale(0.015625)"/>
       </defs>
       <use xlink:href="#DejaVuSans-20"/>
       <use xlink:href="#DejaVuSans-31" x="31.787109"/>
       <use xlink:href="#DejaVuSans-32" x="95.410156"/>
       <use xlink:href="#DejaVuSans-74" x="159.033203"/>
       <use xlink:href="#DejaVuSans-68" x="198.242188"/>
      </g>
     </g>
    </g>
    <g id="xtick_4">
     <g id="line2d_4">
      <g>
       <use xlink:href="#mff29718d93" x="135.72" y="307.584" style="stroke: #000000; stroke-width: 0.8"/>
      </g>
     </g>
     <g id="text_4">
      <!--  1st-4th -->
      <g transform="translate(106.74409 347.462256) rotate(-45) scale(0.1 -0.1)">
       <defs>
        <path id="DejaVuSans-73" d="M 2834 3397 
L 2834 2853 
Q 2591 2978 2328 3040 
Q 2066 3103 1784 3103 
Q 1356 3103 1142 2972 
Q 928 2841 928 2578 
Q 928 2378 1081 2264 
Q 1234 2150 1697 2047 
L 1894 2003 
Q 2506 1872 2764 1633 
Q 3022 1394 3022 966 
Q 3022 478 2636 193 
Q 2250 -91 1575 -91 
Q 1294 -91 989 -36 
Q 684 19 347 128 
L 347 722 
Q 666 556 975 473 
Q 1284 391 1588 391 
Q 1994 391 2212 530 
Q 2431 669 2431 922 
Q 2431 1156 2273 1281 
Q 2116 1406 1581 1522 
L 1381 1569 
Q 847 1681 609 1914 
Q 372 2147 372 2553 
Q 372 3047 722 3315 
Q 1072 3584 1716 3584 
Q 2034 3584 2315 3537 
Q 2597 3491 2834 3397 
z
" transform="scale(0.015625)"/>
        <path id="DejaVuSans-2d" d="M 313 2009 
L 1997 2009 
L 1997 1497 
L 313 1497 
L 313 2009 
z
" transform="scale(0.015625)"/>
        <path id="DejaVuSans-34" d="M 2419 4116 
L 825 1625 
L 2419 1625 
L 2419 4116 
z
M 2253 4666 
L 3047 4666 
L 3047 1625 
L 3713 1625 
L 3713 1100 
L 3047 1100 
L 3047 0 
L 2419 0 
L 2419 1100 
L 313 1100 
L 313 1709 
L 2253 4666 
z
" transform="scale(0.015625)"/>
       </defs>
       <use xlink:href="#DejaVuSans-20"/>
       <use xlink:href="#DejaVuSans-31" x="31.787109"/>
       <use xlink:href="#DejaVuSans-73" x="95.410156"/>
       <use xlink:href="#DejaVuSans-74" x="147.509766"/>
       <use xlink:href="#DejaVuSans-2d" x="186.71875"/>
       <use xlink:href="#DejaVuSans-34" x="222.802734"/>
       <use xlink:href="#DejaVuSans-74" x="286.425781"/>
       <use xlink:href="#DejaVuSans-68" x="325.634766"/>
      </g>
     </g>
    </g>
    <g id="xtick_5">
     <g id="line2d_5">
      <g>
       <use xlink:href="#mff29718d93" x="158.04" y="307.584" style="stroke: #000000; stroke-width: 0.8"/>
      </g>
     </g>
     <g id="text_5">
      <!--  5th-6th -->
      <g transform="translate(128.266385 348.25996) rotate(-45) scale(0.1 -0.1)">
       <defs>
        <path id="DejaVuSans-35" d="M 691 4666 
L 3169 4666 
L 3169 4134 
L 1269 4134 
L 1269 2991 
Q 1406 3038 1543 3061 
Q 1681 3084 1819 3084 
Q 2600 3084 3056 2656 
Q 3513 2228 3513 1497 
Q 3513 744 3044 326 
Q 2575 -91 1722 -91 
Q 1428 -91 1123 -41 
Q 819 9 494 109 
L 494 744 
Q 775 591 1075 516 
Q 1375 441 1709 441 
Q 2250 441 2565 725 
Q 2881 1009 2881 1497 
Q 2881 1984 2565 2268 
Q 2250 2553 1709 2553 
Q 1456 2553 1204 2497 
Q 953 2441 691 2322 
L 691 4666 
z
" transform="scale(0.015625)"/>
        <path id="DejaVuSans-36" d="M 2113 2584 
Q 1688 2584 1439 2293 
Q 1191 2003 1191 1497 
Q 1191 994 1439 701 
Q 1688 409 2113 409 
Q 2538 409 2786 701 
Q 3034 994 3034 1497 
Q 3034 2003 2786 2293 
Q 2538 2584 2113 2584 
z
M 3366 4563 
L 3366 3988 
Q 3128 4100 2886 4159 
Q 2644 4219 2406 4219 
Q 1781 4219 1451 3797 
Q 1122 3375 1075 2522 
Q 1259 2794 1537 2939 
Q 1816 3084 2150 3084 
Q 2853 3084 3261 2657 
Q 3669 2231 3669 1497 
Q 3669 778 3244 343 
Q 2819 -91 2113 -91 
Q 1303 -91 875 529 
Q 447 1150 447 2328 
Q 447 3434 972 4092 
Q 1497 4750 2381 4750 
Q 2619 4750 2861 4703 
Q 3103 4656 3366 4563 
z
" transform="scale(0.015625)"/>
       </defs>
       <use xlink:href="#DejaVuSans-20"/>
       <use xlink:href="#DejaVuSans-35" x="31.787109"/>
       <use xlink:href="#DejaVuSans-74" x="95.410156"/>
       <use xlink:href="#DejaVuSans-68" x="134.619141"/>
       <use xlink:href="#DejaVuSans-2d" x="197.998047"/>
       <use xlink:href="#DejaVuSans-36" x="234.082031"/>
       <use xlink:href="#DejaVuSans-74" x="297.705078"/>
       <use xlink:href="#DejaVuSans-68" x="336.914062"/>
      </g>
     </g>
    </g>
    <g id="xtick_6">
     <g id="line2d_6">
      <g>
       <use xlink:href="#mff29718d93" x="180.36" y="307.584" style="stroke: #000000; stroke-width: 0.8"/>
      </g>
     </g>
     <g id="text_6">
      <!--  7th-8th -->
      <g transform="translate(150.586385 348.25996) rotate(-45) scale(0.1 -0.1)">
       <defs>
        <path id="DejaVuSans-37" d="M 525 4666 
L 3525 4666 
L 3525 4397 
L 1831 0 
L 1172 0 
L 2766 4134 
L 525 4134 
L 525 4666 
z
" transform="scale(0.015625)"/>
        <path id="DejaVuSans-38" d="M 2034 2216 
Q 1584 2216 1326 1975 
Q 1069 1734 1069 1313 
Q 1069 891 1326 650 
Q 1584 409 2034 409 
Q 2484 409 2743 651 
Q 3003 894 3003 1313 
Q 3003 1734 2745 1975 
Q 2488 2216 2034 2216 
z
M 1403 2484 
Q 997 2584 770 2862 
Q 544 3141 544 3541 
Q 544 4100 942 4425 
Q 1341 4750 2034 4750 
Q 2731 4750 3128 4425 
Q 3525 4100 3525 3541 
Q 3525 3141 3298 2862 
Q 3072 2584 2669 2484 
Q 3125 2378 3379 2068 
Q 3634 1759 3634 1313 
Q 3634 634 3220 271 
Q 2806 -91 2034 -91 
Q 1263 -91 848 271 
Q 434 634 434 1313 
Q 434 1759 690 2068 
Q 947 2378 1403 2484 
z
M 1172 3481 
Q 1172 3119 1398 2916 
Q 1625 2713 2034 2713 
Q 2441 2713 2670 2916 
Q 2900 3119 2900 3481 
Q 2900 3844 2670 4047 
Q 2441 4250 2034 4250 
Q 1625 4250 1398 4047 
Q 1172 3844 1172 3481 
z
" transform="scale(0.015625)"/>
       </defs>
       <use xlink:href="#DejaVuSans-20"/>
       <use xlink:href="#DejaVuSans-37" x="31.787109"/>
       <use xlink:href="#DejaVuSans-74" x="95.410156"/>
       <use xlink:href="#DejaVuSans-68" x="134.619141"/>
       <use xlink:href="#DejaVuSans-2d" x="197.998047"/>
       <use xlink:href="#DejaVuSans-38" x="234.082031"/>
       <use xlink:href="#DejaVuSans-74" x="297.705078"/>
       <use xlink:href="#DejaVuSans-68" x="336.914062"/>
      </g>
     </g>
    </g>
    <g id="xtick_7">
     <g id="line2d_7">
      <g>
       <use xlink:href="#mff29718d93" x="202.68" y="307.584" style="stroke: #000000; stroke-width: 0.8"/>
      </g>
     </g>
     <g id="text_7">
      <!--  9th -->
      <g transform="translate(187.209829 333.956516) rotate(-45) scale(0.1 -0.1)">
       <defs>
        <path id="DejaVuSans-39" d="M 703 97 
L 703 672 
Q 941 559 1184 500 
Q 1428 441 1663 441 
Q 2288 441 2617 861 
Q 2947 1281 2994 2138 
Q 2813 1869 2534 1725 
Q 2256 1581 1919 1581 
Q 1219 1581 811 2004 
Q 403 2428 403 3163 
Q 403 3881 828 4315 
Q 1253 4750 1959 4750 
Q 2769 4750 3195 4129 
Q 3622 3509 3622 2328 
Q 3622 1225 3098 567 
Q 2575 -91 1691 -91 
Q 1453 -91 1209 -44 
Q 966 3 703 97 
z
M 1959 2075 
Q 2384 2075 2632 2365 
Q 2881 2656 2881 3163 
Q 2881 3666 2632 3958 
Q 2384 4250 1959 4250 
Q 1534 4250 1286 3958 
Q 1038 3666 1038 3163 
Q 1038 2656 1286 2365 
Q 1534 2075 1959 2075 
z
" transform="scale(0.015625)"/>
       </defs>
       <use xlink:href="#DejaVuSans-20"/>
       <use xlink:href="#DejaVuSans-39" x="31.787109"/>
       <use xlink:href="#DejaVuSans-74" x="95.410156"/>
       <use xlink:href="#DejaVuSans-68" x="134.619141"/>
      </g>
     </g>
    </g>
    <g id="xtick_8">
     <g id="line2d_8">
      <g>
       <use xlink:href="#mff29718d93" x="225" y="307.584" style="stroke: #000000; stroke-width: 0.8"/>
      </g>
     </g>
     <g id="text_8">
      <!--  Assoc-acdm -->
      <g transform="translate(178.714337 364.772009) rotate(-45) scale(0.1 -0.1)">
       <defs>
        <path id="DejaVuSans-41" d="M 2188 4044 
L 1331 1722 
L 3047 1722 
L 2188 4044 
z
M 1831 4666 
L 2547 4666 
L 4325 0 
L 3669 0 
L 3244 1197 
L 1141 1197 
L 716 0 
L 50 0 
L 1831 4666 
z
" transform="scale(0.015625)"/>
        <path id="DejaVuSans-6f" d="M 1959 3097 
Q 1497 3097 1228 2736 
Q 959 2375 959 1747 
Q 959 1119 1226 758 
Q 1494 397 1959 397 
Q 2419 397 2687 759 
Q 2956 1122 2956 1747 
Q 2956 2369 2687 2733 
Q 2419 3097 1959 3097 
z
M 1959 3584 
Q 2709 3584 3137 3096 
Q 3566 2609 3566 1747 
Q 3566 888 3137 398 
Q 2709 -91 1959 -91 
Q 1206 -91 779 398 
Q 353 888 353 1747 
Q 353 2609 779 3096 
Q 1206 3584 1959 3584 
z
" transform="scale(0.015625)"/>
        <path id="DejaVuSans-63" d="M 3122 3366 
L 3122 2828 
Q 2878 2963 2633 3030 
Q 2388 3097 2138 3097 
Q 1578 3097 1268 2742 
Q 959 2388 959 1747 
Q 959 1106 1268 751 
Q 1578 397 2138 397 
Q 2388 397 2633 464 
Q 2878 531 3122 666 
L 3122 134 
Q 2881 22 2623 -34 
Q 2366 -91 2075 -91 
Q 1284 -91 818 406 
Q 353 903 353 1747 
Q 353 2603 823 3093 
Q 1294 3584 2113 3584 
Q 2378 3584 2631 3529 
Q 2884 3475 3122 3366 
z
" transform="scale(0.015625)"/>
        <path id="DejaVuSans-61" d="M 2194 1759 
Q 1497 1759 1228 1600 
Q 959 1441 959 1056 
Q 959 750 1161 570 
Q 1363 391 1709 391 
Q 2188 391 2477 730 
Q 2766 1069 2766 1631 
L 2766 1759 
L 2194 1759 
z
M 3341 1997 
L 3341 0 
L 2766 0 
L 2766 531 
Q 2569 213 2275 61 
Q 1981 -91 1556 -91 
Q 1019 -91 701 211 
Q 384 513 384 1019 
Q 384 1609 779 1909 
Q 1175 2209 1959 2209 
L 2766 2209 
L 2766 2266 
Q 2766 2663 2505 2880 
Q 2244 3097 1772 3097 
Q 1472 3097 1187 3025 
Q 903 2953 641 2809 
L 641 3341 
Q 956 3463 1253 3523 
Q 1550 3584 1831 3584 
Q 2591 3584 2966 3190 
Q 3341 2797 3341 1997 
z
" transform="scale(0.015625)"/>
        <path id="DejaVuSans-64" d="M 2906 2969 
L 2906 4863 
L 3481 4863 
L 3481 0 
L 2906 0 
L 2906 525 
Q 2725 213 2448 61 
Q 2172 -91 1784 -91 
Q 1150 -91 751 415 
Q 353 922 353 1747 
Q 353 2572 751 3078 
Q 1150 3584 1784 3584 
Q 2172 3584 2448 3432 
Q 2725 3281 2906 2969 
z
M 947 1747 
Q 947 1113 1208 752 
Q 1469 391 1925 391 
Q 2381 391 2643 752 
Q 2906 1113 2906 1747 
Q 2906 2381 2643 2742 
Q 2381 3103 1925 3103 
Q 1469 3103 1208 2742 
Q 947 2381 947 1747 
z
" transform="scale(0.015625)"/>
        <path id="DejaVuSans-6d" d="M 3328 2828 
Q 3544 3216 3844 3400 
Q 4144 3584 4550 3584 
Q 5097 3584 5394 3201 
Q 5691 2819 5691 2113 
L 5691 0 
L 5113 0 
L 5113 2094 
Q 5113 2597 4934 2840 
Q 4756 3084 4391 3084 
Q 3944 3084 3684 2787 
Q 3425 2491 3425 1978 
L 3425 0 
L 2847 0 
L 2847 2094 
Q 2847 2600 2669 2842 
Q 2491 3084 2119 3084 
Q 1678 3084 1418 2786 
Q 1159 2488 1159 1978 
L 1159 0 
L 581 0 
L 581 3500 
L 1159 3500 
L 1159 2956 
Q 1356 3278 1631 3431 
Q 1906 3584 2284 3584 
Q 2666 3584 2933 3390 
Q 3200 3197 3328 2828 
z
" transform="scale(0.015625)"/>
       </defs>
       <use xlink:href="#DejaVuSans-20"/>
       <use xlink:href="#DejaVuSans-41" x="31.787109"/>
       <use xlink:href="#DejaVuSans-73" x="100.195312"/>
       <use xlink:href="#DejaVuSans-73" x="152.294922"/>
       <use xlink:href="#DejaVuSans-6f" x="204.394531"/>
       <use xlink:href="#DejaVuSans-63" x="265.576172"/>
       <use xlink:href="#DejaVuSans-2d" x="320.556641"/>
       <use xlink:href="#DejaVuSans-61" x="356.640625"/>
       <use xlink:href="#DejaVuSans-63" x="417.919922"/>
       <use xlink:href="#DejaVuSans-64" x="472.900391"/>
       <use xlink:href="#DejaVuSans-6d" x="536.376953"/>
      </g>
     </g>
    </g>
    <g id="xtick_9">
     <g id="line2d_9">
      <g>
       <use xlink:href="#mff29718d93" x="247.32" y="307.584" style="stroke: #000000; stroke-width: 0.8"/>
      </g>
     </g>
     <g id="text_9">
      <!--  Assoc-voc -->
      <g transform="translate(208.418078 357.388267) rotate(-45) scale(0.1 -0.1)">
       <defs>
        <path id="DejaVuSans-76" d="M 191 3500 
L 800 3500 
L 1894 563 
L 2988 3500 
L 3597 3500 
L 2284 0 
L 1503 0 
L 191 3500 
z
" transform="scale(0.015625)"/>
       </defs>
       <use xlink:href="#DejaVuSans-20"/>
       <use xlink:href="#DejaVuSans-41" x="31.787109"/>
       <use xlink:href="#DejaVuSans-73" x="100.195312"/>
       <use xlink:href="#DejaVuSans-73" x="152.294922"/>
       <use xlink:href="#DejaVuSans-6f" x="204.394531"/>
       <use xlink:href="#DejaVuSans-63" x="265.576172"/>
       <use xlink:href="#DejaVuSans-2d" x="320.556641"/>
       <use xlink:href="#DejaVuSans-76" x="354.015625"/>
       <use xlink:href="#DejaVuSans-6f" x="413.195312"/>
       <use xlink:href="#DejaVuSans-63" x="474.376953"/>
      </g>
     </g>
    </g>
    <g id="xtick_10">
     <g id="line2d_10">
      <g>
       <use xlink:href="#mff29718d93" x="269.64" y="307.584" style="stroke: #000000; stroke-width: 0.8"/>
      </g>
     </g>
     <g id="text_10">
      <!--  Bachelors -->
      <g transform="translate(231.135826 356.990519) rotate(-45) scale(0.1 -0.1)">
       <defs>
        <path id="DejaVuSans-42" d="M 1259 2228 
L 1259 519 
L 2272 519 
Q 2781 519 3026 730 
Q 3272 941 3272 1375 
Q 3272 1813 3026 2020 
Q 2781 2228 2272 2228 
L 1259 2228 
z
M 1259 4147 
L 1259 2741 
L 2194 2741 
Q 2656 2741 2882 2914 
Q 3109 3088 3109 3444 
Q 3109 3797 2882 3972 
Q 2656 4147 2194 4147 
L 1259 4147 
z
M 628 4666 
L 2241 4666 
Q 2963 4666 3353 4366 
Q 3744 4066 3744 3513 
Q 3744 3084 3544 2831 
Q 3344 2578 2956 2516 
Q 3422 2416 3680 2098 
Q 3938 1781 3938 1306 
Q 3938 681 3513 340 
Q 3088 0 2303 0 
L 628 0 
L 628 4666 
z
" transform="scale(0.015625)"/>
        <path id="DejaVuSans-65" d="M 3597 1894 
L 3597 1613 
L 953 1613 
Q 991 1019 1311 708 
Q 1631 397 2203 397 
Q 2534 397 2845 478 
Q 3156 559 3463 722 
L 3463 178 
Q 3153 47 2828 -22 
Q 2503 -91 2169 -91 
Q 1331 -91 842 396 
Q 353 884 353 1716 
Q 353 2575 817 3079 
Q 1281 3584 2069 3584 
Q 2775 3584 3186 3129 
Q 3597 2675 3597 1894 
z
M 3022 2063 
Q 3016 2534 2758 2815 
Q 2500 3097 2075 3097 
Q 1594 3097 1305 2825 
Q 1016 2553 972 2059 
L 3022 2063 
z
" transform="scale(0.015625)"/>
        <path id="DejaVuSans-6c" d="M 603 4863 
L 1178 4863 
L 1178 0 
L 603 0 
L 603 4863 
z
" transform="scale(0.015625)"/>
        <path id="DejaVuSans-72" d="M 2631 2963 
Q 2534 3019 2420 3045 
Q 2306 3072 2169 3072 
Q 1681 3072 1420 2755 
Q 1159 2438 1159 1844 
L 1159 0 
L 581 0 
L 581 3500 
L 1159 3500 
L 1159 2956 
Q 1341 3275 1631 3429 
Q 1922 3584 2338 3584 
Q 2397 3584 2469 3576 
Q 2541 3569 2628 3553 
L 2631 2963 
z
" transform="scale(0.015625)"/>
       </defs>
       <use xlink:href="#DejaVuSans-20"/>
       <use xlink:href="#DejaVuSans-42" x="31.787109"/>
       <use xlink:href="#DejaVuSans-61" x="100.390625"/>
       <use xlink:href="#DejaVuSans-63" x="161.669922"/>
       <use xlink:href="#DejaVuSans-68" x="216.650391"/>
       <use xlink:href="#DejaVuSans-65" x="280.029297"/>
       <use xlink:href="#DejaVuSans-6c" x="341.552734"/>
       <use xlink:href="#DejaVuSans-6f" x="369.335938"/>
       <use xlink:href="#DejaVuSans-72" x="430.517578"/>
       <use xlink:href="#DejaVuSans-73" x="471.630859"/>
      </g>
     </g>
    </g>
    <g id="xtick_11">
     <g id="line2d_11">
      <g>
       <use xlink:href="#mff29718d93" x="291.96" y="307.584" style="stroke: #000000; stroke-width: 0.8"/>
      </g>
     </g>
     <g id="text_11">
      <!--  Doctorate -->
      <g transform="translate(253.121055 357.32529) rotate(-45) scale(0.1 -0.1)">
       <defs>
        <path id="DejaVuSans-44" d="M 1259 4147 
L 1259 519 
L 2022 519 
Q 2988 519 3436 956 
Q 3884 1394 3884 2338 
Q 3884 3275 3436 3711 
Q 2988 4147 2022 4147 
L 1259 4147 
z
M 628 4666 
L 1925 4666 
Q 3281 4666 3915 4102 
Q 4550 3538 4550 2338 
Q 4550 1131 3912 565 
Q 3275 0 1925 0 
L 628 0 
L 628 4666 
z
" transform="scale(0.015625)"/>
       </defs>
       <use xlink:href="#DejaVuSans-20"/>
       <use xlink:href="#DejaVuSans-44" x="31.787109"/>
       <use xlink:href="#DejaVuSans-6f" x="108.789062"/>
       <use xlink:href="#DejaVuSans-63" x="169.970703"/>
       <use xlink:href="#DejaVuSans-74" x="224.951172"/>
       <use xlink:href="#DejaVuSans-6f" x="264.160156"/>
       <use xlink:href="#DejaVuSans-72" x="325.341797"/>
       <use xlink:href="#DejaVuSans-61" x="366.455078"/>
       <use xlink:href="#DejaVuSans-74" x="427.734375"/>
       <use xlink:href="#DejaVuSans-65" x="466.943359"/>
      </g>
     </g>
    </g>
    <g id="xtick_12">
     <g id="line2d_12">
      <g>
       <use xlink:href="#mff29718d93" x="314.28" y="307.584" style="stroke: #000000; stroke-width: 0.8"/>
      </g>
     </g>
     <g id="text_12">
      <!--  HS-grad -->
      <g transform="translate(281.986212 350.780133) rotate(-45) scale(0.1 -0.1)">
       <defs>
        <path id="DejaVuSans-48" d="M 628 4666 
L 1259 4666 
L 1259 2753 
L 3553 2753 
L 3553 4666 
L 4184 4666 
L 4184 0 
L 3553 0 
L 3553 2222 
L 1259 2222 
L 1259 0 
L 628 0 
L 628 4666 
z
" transform="scale(0.015625)"/>
        <path id="DejaVuSans-53" d="M 3425 4513 
L 3425 3897 
Q 3066 4069 2747 4153 
Q 2428 4238 2131 4238 
Q 1616 4238 1336 4038 
Q 1056 3838 1056 3469 
Q 1056 3159 1242 3001 
Q 1428 2844 1947 2747 
L 2328 2669 
Q 3034 2534 3370 2195 
Q 3706 1856 3706 1288 
Q 3706 609 3251 259 
Q 2797 -91 1919 -91 
Q 1588 -91 1214 -16 
Q 841 59 441 206 
L 441 856 
Q 825 641 1194 531 
Q 1563 422 1919 422 
Q 2459 422 2753 634 
Q 3047 847 3047 1241 
Q 3047 1584 2836 1778 
Q 2625 1972 2144 2069 
L 1759 2144 
Q 1053 2284 737 2584 
Q 422 2884 422 3419 
Q 422 4038 858 4394 
Q 1294 4750 2059 4750 
Q 2388 4750 2728 4690 
Q 3069 4631 3425 4513 
z
" transform="scale(0.015625)"/>
        <path id="DejaVuSans-67" d="M 2906 1791 
Q 2906 2416 2648 2759 
Q 2391 3103 1925 3103 
Q 1463 3103 1205 2759 
Q 947 2416 947 1791 
Q 947 1169 1205 825 
Q 1463 481 1925 481 
Q 2391 481 2648 825 
Q 2906 1169 2906 1791 
z
M 3481 434 
Q 3481 -459 3084 -895 
Q 2688 -1331 1869 -1331 
Q 1566 -1331 1297 -1286 
Q 1028 -1241 775 -1147 
L 775 -588 
Q 1028 -725 1275 -790 
Q 1522 -856 1778 -856 
Q 2344 -856 2625 -561 
Q 2906 -266 2906 331 
L 2906 616 
Q 2728 306 2450 153 
Q 2172 0 1784 0 
Q 1141 0 747 490 
Q 353 981 353 1791 
Q 353 2603 747 3093 
Q 1141 3584 1784 3584 
Q 2172 3584 2450 3431 
Q 2728 3278 2906 2969 
L 2906 3500 
L 3481 3500 
L 3481 434 
z
" transform="scale(0.015625)"/>
       </defs>
       <use xlink:href="#DejaVuSans-20"/>
       <use xlink:href="#DejaVuSans-48" x="31.787109"/>
       <use xlink:href="#DejaVuSans-53" x="106.982422"/>
       <use xlink:href="#DejaVuSans-2d" x="170.458984"/>
       <use xlink:href="#DejaVuSans-67" x="206.542969"/>
       <use xlink:href="#DejaVuSans-72" x="270.019531"/>
       <use xlink:href="#DejaVuSans-61" x="311.132812"/>
       <use xlink:href="#DejaVuSans-64" x="372.412109"/>
      </g>
     </g>
    </g>
    <g id="xtick_13">
     <g id="line2d_13">
      <g>
       <use xlink:href="#mff29718d93" x="336.6" y="307.584" style="stroke: #000000; stroke-width: 0.8"/>
      </g>
     </g>
     <g id="text_13">
      <!--  Masters -->
      <g transform="translate(305.050884 350.035461) rotate(-45) scale(0.1 -0.1)">
       <defs>
        <path id="DejaVuSans-4d" d="M 628 4666 
L 1569 4666 
L 2759 1491 
L 3956 4666 
L 4897 4666 
L 4897 0 
L 4281 0 
L 4281 4097 
L 3078 897 
L 2444 897 
L 1241 4097 
L 1241 0 
L 628 0 
L 628 4666 
z
" transform="scale(0.015625)"/>
       </defs>
       <use xlink:href="#DejaVuSans-20"/>
       <use xlink:href="#DejaVuSans-4d" x="31.787109"/>
       <use xlink:href="#DejaVuSans-61" x="118.066406"/>
       <use xlink:href="#DejaVuSans-73" x="179.345703"/>
       <use xlink:href="#DejaVuSans-74" x="231.445312"/>
       <use xlink:href="#DejaVuSans-65" x="270.654297"/>
       <use xlink:href="#DejaVuSans-72" x="332.177734"/>
       <use xlink:href="#DejaVuSans-73" x="373.291016"/>
      </g>
     </g>
    </g>
    <g id="xtick_14">
     <g id="line2d_14">
      <g>
       <use xlink:href="#mff29718d93" x="358.92" y="307.584" style="stroke: #000000; stroke-width: 0.8"/>
      </g>
     </g>
     <g id="text_14">
      <!--  Preschool -->
      <g transform="translate(321.29308 356.113265) rotate(-45) scale(0.1 -0.1)">
       <defs>
        <path id="DejaVuSans-50" d="M 1259 4147 
L 1259 2394 
L 2053 2394 
Q 2494 2394 2734 2622 
Q 2975 2850 2975 3272 
Q 2975 3691 2734 3919 
Q 2494 4147 2053 4147 
L 1259 4147 
z
M 628 4666 
L 2053 4666 
Q 2838 4666 3239 4311 
Q 3641 3956 3641 3272 
Q 3641 2581 3239 2228 
Q 2838 1875 2053 1875 
L 1259 1875 
L 1259 0 
L 628 0 
L 628 4666 
z
" transform="scale(0.015625)"/>
       </defs>
       <use xlink:href="#DejaVuSans-20"/>
       <use xlink:href="#DejaVuSans-50" x="31.787109"/>
       <use xlink:href="#DejaVuSans-72" x="90.339844"/>
       <use xlink:href="#DejaVuSans-65" x="129.203125"/>
       <use xlink:href="#DejaVuSans-73" x="190.726562"/>
       <use xlink:href="#DejaVuSans-63" x="242.826172"/>
       <use xlink:href="#DejaVuSans-68" x="297.806641"/>
       <use xlink:href="#DejaVuSans-6f" x="361.185547"/>
       <use xlink:href="#DejaVuSans-6f" x="422.367188"/>
       <use xlink:href="#DejaVuSans-6c" x="483.548828"/>
      </g>
     </g>
    </g>
    <g id="xtick_15">
     <g id="line2d_15">
      <g>
       <use xlink:href="#mff29718d93" x="381.24" y="307.584" style="stroke: #000000; stroke-width: 0.8"/>
      </g>
     </g>
     <g id="text_15">
      <!--  Prof-school -->
      <g transform="translate(338.98595 360.740395) rotate(-45) scale(0.1 -0.1)">
       <defs>
        <path id="DejaVuSans-66" d="M 2375 4863 
L 2375 4384 
L 1825 4384 
Q 1516 4384 1395 4259 
Q 1275 4134 1275 3809 
L 1275 3500 
L 2222 3500 
L 2222 3053 
L 1275 3053 
L 1275 0 
L 697 0 
L 697 3053 
L 147 3053 
L 147 3500 
L 697 3500 
L 697 3744 
Q 697 4328 969 4595 
Q 1241 4863 1831 4863 
L 2375 4863 
z
" transform="scale(0.015625)"/>
       </defs>
       <use xlink:href="#DejaVuSans-20"/>
       <use xlink:href="#DejaVuSans-50" x="31.787109"/>
       <use xlink:href="#DejaVuSans-72" x="90.339844"/>
       <use xlink:href="#DejaVuSans-6f" x="129.203125"/>
       <use xlink:href="#DejaVuSans-66" x="190.384766"/>
       <use xlink:href="#DejaVuSans-2d" x="220.089844"/>
       <use xlink:href="#DejaVuSans-73" x="256.173828"/>
       <use xlink:href="#DejaVuSans-63" x="308.273438"/>
       <use xlink:href="#DejaVuSans-68" x="363.253906"/>
       <use xlink:href="#DejaVuSans-6f" x="426.632812"/>
       <use xlink:href="#DejaVuSans-6f" x="487.814453"/>
       <use xlink:href="#DejaVuSans-6c" x="548.996094"/>
      </g>
     </g>
    </g>
    <g id="xtick_16">
     <g id="line2d_16">
      <g>
       <use xlink:href="#mff29718d93" x="403.56" y="307.584" style="stroke: #000000; stroke-width: 0.8"/>
      </g>
     </g>
     <g id="text_16">
      <!--  Some-college -->
      <g transform="translate(351.902535 370.14381) rotate(-45) scale(0.1 -0.1)">
       <use xlink:href="#DejaVuSans-20"/>
       <use xlink:href="#DejaVuSans-53" x="31.787109"/>
       <use xlink:href="#DejaVuSans-6f" x="95.263672"/>
       <use xlink:href="#DejaVuSans-6d" x="156.445312"/>
       <use xlink:href="#DejaVuSans-65" x="253.857422"/>
       <use xlink:href="#DejaVuSans-2d" x="315.380859"/>
       <use xlink:href="#DejaVuSans-63" x="351.464844"/>
       <use xlink:href="#DejaVuSans-6f" x="406.445312"/>
       <use xlink:href="#DejaVuSans-6c" x="467.626953"/>
       <use xlink:href="#DejaVuSans-6c" x="495.410156"/>
       <use xlink:href="#DejaVuSans-65" x="523.193359"/>
       <use xlink:href="#DejaVuSans-67" x="584.716797"/>
       <use xlink:href="#DejaVuSans-65" x="648.193359"/>
      </g>
     </g>
    </g>
    <g id="text_17">
     <!-- Education Level -->
     <g transform="translate(188.541562 384.732497) scale(0.12 -0.12)">
      <defs>
       <path id="DejaVuSans-45" d="M 628 4666 
L 3578 4666 
L 3578 4134 
L 1259 4134 
L 1259 2753 
L 3481 2753 
L 3481 2222 
L 1259 2222 
L 1259 531 
L 3634 531 
L 3634 0 
L 628 0 
L 628 4666 
z
" transform="scale(0.015625)"/>
       <path id="DejaVuSans-75" d="M 544 1381 
L 544 3500 
L 1119 3500 
L 1119 1403 
Q 1119 906 1312 657 
Q 1506 409 1894 409 
Q 2359 409 2629 706 
Q 2900 1003 2900 1516 
L 2900 3500 
L 3475 3500 
L 3475 0 
L 2900 0 
L 2900 538 
Q 2691 219 2414 64 
Q 2138 -91 1772 -91 
Q 1169 -91 856 284 
Q 544 659 544 1381 
z
M 1991 3584 
L 1991 3584 
z
" transform="scale(0.015625)"/>
       <path id="DejaVuSans-69" d="M 603 3500 
L 1178 3500 
L 1178 0 
L 603 0 
L 603 3500 
z
M 603 4863 
L 1178 4863 
L 1178 4134 
L 603 4134 
L 603 4863 
z
" transform="scale(0.015625)"/>
       <path id="DejaVuSans-6e" d="M 3513 2113 
L 3513 0 
L 2938 0 
L 2938 2094 
Q 2938 2591 2744 2837 
Q 2550 3084 2163 3084 
Q 1697 3084 1428 2787 
Q 1159 2491 1159 1978 
L 1159 0 
L 581 0 
L 581 3500 
L 1159 3500 
L 1159 2956 
Q 1366 3272 1645 3428 
Q 1925 3584 2291 3584 
Q 2894 3584 3203 3211 
Q 3513 2838 3513 2113 
z
" transform="scale(0.015625)"/>
       <path id="DejaVuSans-4c" d="M 628 4666 
L 1259 4666 
L 1259 531 
L 3531 531 
L 3531 0 
L 628 0 
L 628 4666 
z
" transform="scale(0.015625)"/>
      </defs>
      <use xlink:href="#DejaVuSans-45"/>
      <use xlink:href="#DejaVuSans-64" x="63.183594"/>
      <use xlink:href="#DejaVuSans-75" x="126.660156"/>
      <use xlink:href="#DejaVuSans-63" x="190.039062"/>
      <use xlink:href="#DejaVuSans-61" x="245.019531"/>
      <use xlink:href="#DejaVuSans-74" x="306.298828"/>
      <use xlink:href="#DejaVuSans-69" x="345.507812"/>
      <use xlink:href="#DejaVuSans-6f" x="373.291016"/>
      <use xlink:href="#DejaVuSans-6e" x="434.472656"/>
      <use xlink:href="#DejaVuSans-20" x="497.851562"/>
      <use xlink:href="#DejaVuSans-4c" x="529.638672"/>
      <use xlink:href="#DejaVuSans-65" x="583.601562"/>
      <use xlink:href="#DejaVuSans-76" x="645.125"/>
      <use xlink:href="#DejaVuSans-65" x="704.304688"/>
      <use xlink:href="#DejaVuSans-6c" x="765.828125"/>
     </g>
    </g>
   </g>
   <g id="matplotlib.axis_2">
    <g id="ytick_1">
     <g id="line2d_17">
      <defs>
       <path id="m79e1862cb4" d="M 0 0 
L -3.5 0 
" style="stroke: #000000; stroke-width: 0.8"/>
      </defs>
      <g>
       <use xlink:href="#m79e1862cb4" x="57.6" y="307.584" style="stroke: #000000; stroke-width: 0.8"/>
      </g>
     </g>
     <g id="text_18">
      <!-- 0 -->
      <g transform="translate(44.2375 311.383219) scale(0.1 -0.1)">
       <use xlink:href="#DejaVuSans-30"/>
      </g>
     </g>
    </g>
    <g id="ytick_2">
     <g id="line2d_18">
      <g>
       <use xlink:href="#m79e1862cb4" x="57.6" y="259.611257" style="stroke: #000000; stroke-width: 0.8"/>
      </g>
     </g>
     <g id="text_19">
      <!-- 1000 -->
      <g transform="translate(25.15 263.410476) scale(0.1 -0.1)">
       <use xlink:href="#DejaVuSans-31"/>
       <use xlink:href="#DejaVuSans-30" x="63.623047"/>
       <use xlink:href="#DejaVuSans-30" x="127.246094"/>
       <use xlink:href="#DejaVuSans-30" x="190.869141"/>
      </g>
     </g>
    </g>
    <g id="ytick_3">
     <g id="line2d_19">
      <g>
       <use xlink:href="#m79e1862cb4" x="57.6" y="211.638514" style="stroke: #000000; stroke-width: 0.8"/>
      </g>
     </g>
     <g id="text_20">
      <!-- 2000 -->
      <g transform="translate(25.15 215.437733) scale(0.1 -0.1)">
       <use xlink:href="#DejaVuSans-32"/>
       <use xlink:href="#DejaVuSans-30" x="63.623047"/>
       <use xlink:href="#DejaVuSans-30" x="127.246094"/>
       <use xlink:href="#DejaVuSans-30" x="190.869141"/>
      </g>
     </g>
    </g>
    <g id="ytick_4">
     <g id="line2d_20">
      <g>
       <use xlink:href="#m79e1862cb4" x="57.6" y="163.665772" style="stroke: #000000; stroke-width: 0.8"/>
      </g>
     </g>
     <g id="text_21">
      <!-- 3000 -->
      <g transform="translate(25.15 167.46499) scale(0.1 -0.1)">
       <defs>
        <path id="DejaVuSans-33" d="M 2597 2516 
Q 3050 2419 3304 2112 
Q 3559 1806 3559 1356 
Q 3559 666 3084 287 
Q 2609 -91 1734 -91 
Q 1441 -91 1130 -33 
Q 819 25 488 141 
L 488 750 
Q 750 597 1062 519 
Q 1375 441 1716 441 
Q 2309 441 2620 675 
Q 2931 909 2931 1356 
Q 2931 1769 2642 2001 
Q 2353 2234 1838 2234 
L 1294 2234 
L 1294 2753 
L 1863 2753 
Q 2328 2753 2575 2939 
Q 2822 3125 2822 3475 
Q 2822 3834 2567 4026 
Q 2313 4219 1838 4219 
Q 1578 4219 1281 4162 
Q 984 4106 628 3988 
L 628 4550 
Q 988 4650 1302 4700 
Q 1616 4750 1894 4750 
Q 2613 4750 3031 4423 
Q 3450 4097 3450 3541 
Q 3450 3153 3228 2886 
Q 3006 2619 2597 2516 
z
" transform="scale(0.015625)"/>
       </defs>
       <use xlink:href="#DejaVuSans-33"/>
       <use xlink:href="#DejaVuSans-30" x="63.623047"/>
       <use xlink:href="#DejaVuSans-30" x="127.246094"/>
       <use xlink:href="#DejaVuSans-30" x="190.869141"/>
      </g>
     </g>
    </g>
    <g id="ytick_5">
     <g id="line2d_21">
      <g>
       <use xlink:href="#m79e1862cb4" x="57.6" y="115.693029" style="stroke: #000000; stroke-width: 0.8"/>
      </g>
     </g>
     <g id="text_22">
      <!-- 4000 -->
      <g transform="translate(25.15 119.492248) scale(0.1 -0.1)">
       <use xlink:href="#DejaVuSans-34"/>
       <use xlink:href="#DejaVuSans-30" x="63.623047"/>
       <use xlink:href="#DejaVuSans-30" x="127.246094"/>
       <use xlink:href="#DejaVuSans-30" x="190.869141"/>
      </g>
     </g>
    </g>
    <g id="ytick_6">
     <g id="line2d_22">
      <g>
       <use xlink:href="#m79e1862cb4" x="57.6" y="67.720286" style="stroke: #000000; stroke-width: 0.8"/>
      </g>
     </g>
     <g id="text_23">
      <!-- 5000 -->
      <g transform="translate(25.15 71.519505) scale(0.1 -0.1)">
       <use xlink:href="#DejaVuSans-35"/>
       <use xlink:href="#DejaVuSans-30" x="63.623047"/>
       <use xlink:href="#DejaVuSans-30" x="127.246094"/>
       <use xlink:href="#DejaVuSans-30" x="190.869141"/>
      </g>
     </g>
    </g>
    <g id="text_24">
     <!-- Count -->
     <g transform="translate(18.654375 192.346125) rotate(-90) scale(0.12 -0.12)">
      <defs>
       <path id="DejaVuSans-43" d="M 4122 4306 
L 4122 3641 
Q 3803 3938 3442 4084 
Q 3081 4231 2675 4231 
Q 1875 4231 1450 3742 
Q 1025 3253 1025 2328 
Q 1025 1406 1450 917 
Q 1875 428 2675 428 
Q 3081 428 3442 575 
Q 3803 722 4122 1019 
L 4122 359 
Q 3791 134 3420 21 
Q 3050 -91 2638 -91 
Q 1578 -91 968 557 
Q 359 1206 359 2328 
Q 359 3453 968 4101 
Q 1578 4750 2638 4750 
Q 3056 4750 3426 4639 
Q 3797 4528 4122 4306 
z
" transform="scale(0.015625)"/>
      </defs>
      <use xlink:href="#DejaVuSans-43"/>
      <use xlink:href="#DejaVuSans-6f" x="69.824219"/>
      <use xlink:href="#DejaVuSans-75" x="131.005859"/>
      <use xlink:href="#DejaVuSans-6e" x="194.384766"/>
      <use xlink:href="#DejaVuSans-74" x="257.763672"/>
     </g>
    </g>
   </g>
   <g id="patch_35">
    <path d="M 57.6 307.584 
L 57.6 41.472 
" style="fill: none; stroke: #000000; stroke-width: 0.8; stroke-linejoin: miter; stroke-linecap: square"/>
   </g>
   <g id="patch_36">
    <path d="M 414.72 307.584 
L 414.72 41.472 
" style="fill: none; stroke: #000000; stroke-width: 0.8; stroke-linejoin: miter; stroke-linecap: square"/>
   </g>
   <g id="patch_37">
    <path d="M 57.6 307.584 
L 414.72 307.584 
" style="fill: none; stroke: #000000; stroke-width: 0.8; stroke-linejoin: miter; stroke-linecap: square"/>
   </g>
   <g id="patch_38">
    <path d="M 57.6 41.472 
L 414.72 41.472 
" style="fill: none; stroke: #000000; stroke-width: 0.8; stroke-linejoin: miter; stroke-linecap: square"/>
   </g>
   <g id="text_25">
    <!-- Salary Distribution Within Each Educational Level -->
    <g transform="translate(38.69625 35.472) scale(0.16 -0.16)">
     <defs>
      <path id="DejaVuSans-79" d="M 2059 -325 
Q 1816 -950 1584 -1140 
Q 1353 -1331 966 -1331 
L 506 -1331 
L 506 -850 
L 844 -850 
Q 1081 -850 1212 -737 
Q 1344 -625 1503 -206 
L 1606 56 
L 191 3500 
L 800 3500 
L 1894 763 
L 2988 3500 
L 3597 3500 
L 2059 -325 
z
" transform="scale(0.015625)"/>
      <path id="DejaVuSans-62" d="M 3116 1747 
Q 3116 2381 2855 2742 
Q 2594 3103 2138 3103 
Q 1681 3103 1420 2742 
Q 1159 2381 1159 1747 
Q 1159 1113 1420 752 
Q 1681 391 2138 391 
Q 2594 391 2855 752 
Q 3116 1113 3116 1747 
z
M 1159 2969 
Q 1341 3281 1617 3432 
Q 1894 3584 2278 3584 
Q 2916 3584 3314 3078 
Q 3713 2572 3713 1747 
Q 3713 922 3314 415 
Q 2916 -91 2278 -91 
Q 1894 -91 1617 61 
Q 1341 213 1159 525 
L 1159 0 
L 581 0 
L 581 4863 
L 1159 4863 
L 1159 2969 
z
" transform="scale(0.015625)"/>
      <path id="DejaVuSans-57" d="M 213 4666 
L 850 4666 
L 1831 722 
L 2809 4666 
L 3519 4666 
L 4500 722 
L 5478 4666 
L 6119 4666 
L 4947 0 
L 4153 0 
L 3169 4050 
L 2175 0 
L 1381 0 
L 213 4666 
z
" transform="scale(0.015625)"/>
     </defs>
     <use xlink:href="#DejaVuSans-53"/>
     <use xlink:href="#DejaVuSans-61" x="63.476562"/>
     <use xlink:href="#DejaVuSans-6c" x="124.755859"/>
     <use xlink:href="#DejaVuSans-61" x="152.539062"/>
     <use xlink:href="#DejaVuSans-72" x="213.818359"/>
     <use xlink:href="#DejaVuSans-79" x="254.931641"/>
     <use xlink:href="#DejaVuSans-20" x="314.111328"/>
     <use xlink:href="#DejaVuSans-44" x="345.898438"/>
     <use xlink:href="#DejaVuSans-69" x="422.900391"/>
     <use xlink:href="#DejaVuSans-73" x="450.683594"/>
     <use xlink:href="#DejaVuSans-74" x="502.783203"/>
     <use xlink:href="#DejaVuSans-72" x="541.992188"/>
     <use xlink:href="#DejaVuSans-69" x="583.105469"/>
     <use xlink:href="#DejaVuSans-62" x="610.888672"/>
     <use xlink:href="#DejaVuSans-75" x="674.365234"/>
     <use xlink:href="#DejaVuSans-74" x="737.744141"/>
     <use xlink:href="#DejaVuSans-69" x="776.953125"/>
     <use xlink:href="#DejaVuSans-6f" x="804.736328"/>
     <use xlink:href="#DejaVuSans-6e" x="865.917969"/>
     <use xlink:href="#DejaVuSans-20" x="929.296875"/>
     <use xlink:href="#DejaVuSans-57" x="961.083984"/>
     <use xlink:href="#DejaVuSans-69" x="1057.710938"/>
     <use xlink:href="#DejaVuSans-74" x="1085.494141"/>
     <use xlink:href="#DejaVuSans-68" x="1124.703125"/>
     <use xlink:href="#DejaVuSans-69" x="1188.082031"/>
     <use xlink:href="#DejaVuSans-6e" x="1215.865234"/>
     <use xlink:href="#DejaVuSans-20" x="1279.244141"/>
     <use xlink:href="#DejaVuSans-45" x="1311.03125"/>
     <use xlink:href="#DejaVuSans-61" x="1374.214844"/>
     <use xlink:href="#DejaVuSans-63" x="1435.494141"/>
     <use xlink:href="#DejaVuSans-68" x="1490.474609"/>
     <use xlink:href="#DejaVuSans-20" x="1553.853516"/>
     <use xlink:href="#DejaVuSans-45" x="1585.640625"/>
     <use xlink:href="#DejaVuSans-64" x="1648.824219"/>
     <use xlink:href="#DejaVuSans-75" x="1712.300781"/>
     <use xlink:href="#DejaVuSans-63" x="1775.679688"/>
     <use xlink:href="#DejaVuSans-61" x="1830.660156"/>
     <use xlink:href="#DejaVuSans-74" x="1891.939453"/>
     <use xlink:href="#DejaVuSans-69" x="1931.148438"/>
     <use xlink:href="#DejaVuSans-6f" x="1958.931641"/>
     <use xlink:href="#DejaVuSans-6e" x="2020.113281"/>
     <use xlink:href="#DejaVuSans-61" x="2083.492188"/>
     <use xlink:href="#DejaVuSans-6c" x="2144.771484"/>
     <use xlink:href="#DejaVuSans-20" x="2172.554688"/>
     <use xlink:href="#DejaVuSans-4c" x="2204.341797"/>
     <use xlink:href="#DejaVuSans-65" x="2258.304688"/>
     <use xlink:href="#DejaVuSans-76" x="2319.828125"/>
     <use xlink:href="#DejaVuSans-65" x="2379.007812"/>
     <use xlink:href="#DejaVuSans-6c" x="2440.53125"/>
    </g>
   </g>
   <g id="legend_1">
    <g id="patch_39">
     <path d="M 421.72 93.506375 
L 492.940313 93.506375 
Q 494.940313 93.506375 494.940313 91.506375 
L 494.940313 48.472 
Q 494.940313 46.472 492.940313 46.472 
L 421.72 46.472 
Q 419.72 46.472 419.72 48.472 
L 419.72 91.506375 
Q 419.72 93.506375 421.72 93.506375 
z
" style="fill: #ffffff; opacity: 0.8; stroke: #cccccc; stroke-linejoin: miter"/>
    </g>
    <g id="text_26">
     <!-- Salary -->
     <g transform="translate(441.623906 58.070438) scale(0.1 -0.1)">
      <use xlink:href="#DejaVuSans-53"/>
      <use xlink:href="#DejaVuSans-61" x="63.476562"/>
      <use xlink:href="#DejaVuSans-6c" x="124.755859"/>
      <use xlink:href="#DejaVuSans-61" x="152.539062"/>
      <use xlink:href="#DejaVuSans-72" x="213.818359"/>
      <use xlink:href="#DejaVuSans-79" x="254.931641"/>
     </g>
    </g>
    <g id="patch_40">
     <path d="M 423.72 72.748563 
L 443.72 72.748563 
L 443.72 65.748563 
L 423.72 65.748563 
z
" style="fill: #3b4cc0; stroke: #000000; stroke-linejoin: miter"/>
    </g>
    <g id="text_27">
     <!--  &lt;=50K -->
     <g transform="translate(451.72 72.748563) scale(0.1 -0.1)">
      <defs>
       <path id="DejaVuSans-3c" d="M 4684 3150 
L 1459 2003 
L 4684 863 
L 4684 294 
L 678 1747 
L 678 2266 
L 4684 3719 
L 4684 3150 
z
" transform="scale(0.015625)"/>
       <path id="DejaVuSans-3d" d="M 678 2906 
L 4684 2906 
L 4684 2381 
L 678 2381 
L 678 2906 
z
M 678 1631 
L 4684 1631 
L 4684 1100 
L 678 1100 
L 678 1631 
z
" transform="scale(0.015625)"/>
       <path id="DejaVuSans-4b" d="M 628 4666 
L 1259 4666 
L 1259 2694 
L 3353 4666 
L 4166 4666 
L 1850 2491 
L 4331 0 
L 3500 0 
L 1259 2247 
L 1259 0 
L 628 0 
L 628 4666 
z
" transform="scale(0.015625)"/>
      </defs>
      <use xlink:href="#DejaVuSans-20"/>
      <use xlink:href="#DejaVuSans-3c" x="31.787109"/>
      <use xlink:href="#DejaVuSans-3d" x="115.576172"/>
      <use xlink:href="#DejaVuSans-35" x="199.365234"/>
      <use xlink:href="#DejaVuSans-30" x="262.988281"/>
      <use xlink:href="#DejaVuSans-4b" x="326.611328"/>
     </g>
    </g>
    <g id="patch_41">
     <path d="M 423.72 87.426688 
L 443.72 87.426688 
L 443.72 80.426688 
L 423.72 80.426688 
z
" style="fill: #b40426; stroke: #000000; stroke-linejoin: miter"/>
    </g>
    <g id="text_28">
     <!--  &gt;50K -->
     <g transform="translate(451.72 87.426688) scale(0.1 -0.1)">
      <defs>
       <path id="DejaVuSans-3e" d="M 678 3150 
L 678 3719 
L 4684 2266 
L 4684 1747 
L 678 294 
L 678 863 
L 3897 2003 
L 678 3150 
z
" transform="scale(0.015625)"/>
      </defs>
      <use xlink:href="#DejaVuSans-20"/>
      <use xlink:href="#DejaVuSans-3e" x="31.787109"/>
      <use xlink:href="#DejaVuSans-35" x="115.576172"/>
      <use xlink:href="#DejaVuSans-30" x="179.199219"/>
      <use xlink:href="#DejaVuSans-4b" x="242.822266"/>
     </g>
    </g>
   </g>
  </g>
 </g>
 <defs>
  <clipPath id="p180e529964">
   <rect x="57.6" y="41.472" width="357.12" height="266.112"/>
  </clipPath>
 </defs>
</svg>
